<?xml version="1.0" encoding="UTF-8" standalone="no"?>
<!-- Created with Inkscape (http://www.inkscape.org/) -->

<svg
   xmlns:dc="http://purl.org/dc/elements/1.1/"
   xmlns:cc="http://creativecommons.org/ns#"
   xmlns:rdf="http://www.w3.org/1999/02/22-rdf-syntax-ns#"
   xmlns:svg="http://www.w3.org/2000/svg"
   xmlns="http://www.w3.org/2000/svg"
   xmlns:sodipodi="http://sodipodi.sourceforge.net/DTD/sodipodi-0.dtd"
   xmlns:inkscape="http://www.inkscape.org/namespaces/inkscape"
   version="1.1"
   id="svg2"
   width="554.16986"
   height="161.6611"
   viewBox="0 0 554.16986 161.6611"
   sodipodi:docname="Jabs-logo.svg"
   inkscape:version="0.92.5 (2060ec1f9f, 2020-04-08)"
   inkscape:export-filename="/home/habib/Dropbox/Workspace/Java/jabs/img/Jabs-logo.png"
   inkscape:export-xdpi="84.666672"
   inkscape:export-ydpi="84.666672">
  <metadata
     id="metadata8">
    <rdf:RDF>
      <cc:Work
         rdf:about="">
        <dc:format>image/svg+xml</dc:format>
        <dc:type
           rdf:resource="http://purl.org/dc/dcmitype/StillImage" />
        <dc:title />
      </cc:Work>
    </rdf:RDF>
  </metadata>
  <defs
     id="defs6" />
  <sodipodi:namedview
     pagecolor="#ffffff"
     bordercolor="#666666"
     borderopacity="1"
     objecttolerance="10"
     gridtolerance="10"
     guidetolerance="10"
     inkscape:pageopacity="0"
     inkscape:pageshadow="2"
     inkscape:window-width="1366"
     inkscape:window-height="717"
     id="namedview4"
     showgrid="false"
     inkscape:zoom="1.4869087"
     inkscape:cx="288.85431"
     inkscape:cy="80.830551"
     inkscape:window-x="0"
     inkscape:window-y="26"
     inkscape:window-maximized="1"
     inkscape:current-layer="g40" />
  <g
     id="g40"
     transform="translate(-13.309666,-175.17534)">
    <path
       style="fill:#f7d5aa;stroke-width:0.48948142"
       d="M 96.554057,332.28398 C 26.342768,318.90356 -4.6894865,264.31759 26.387305,211.98004 c 8.542991,-14.38758 8.668134,-19.44209 30.435085,-24.14943 10.919674,-2.36151 10.919674,-2.36151 13.815164,-5.46503 5.745808,-6.15855 8.522719,-6.78921 20.801234,-4.72408 4.580199,0.77034 4.87557,0.76056 11.667692,-0.38653 13.30127,-2.2464 31.23337,-1.66264 40.7562,1.32677 2.00538,0.62952 6.46694,1.49435 9.91455,1.92184 7.63222,0.94637 10.50391,2.5511 10.50391,5.8697 0,0.46197 1.23731,1.41094 3.03846,2.33038 34.11325,17.41396 31.24306,35.42996 31.18467,60.95736 -0.11486,50.22757 -8.74255,75.25125 -59.30361,85.58098 -13.05902,2.66799 -35.103,-1.5204 -42.646603,-2.95802 z"
       id="path64"
       inkscape:connector-curvature="0"
       sodipodi:nodetypes="sssssssssssss"
       inkscape:export-xdpi="121.14231"
       inkscape:export-ydpi="121.14231" />
    <path
       style="fill:#a49f9e;stroke-width:0.48948142"
       d="M 97.53017,334.16385 C 83.553815,332.51637 63.579469,327.51107 48.316929,317.3228 9.5175025,291.42288 6.7013315,257.9919 21.832218,218.80385 c 7.59879,-19.68037 10.759357,-25.48732 31.216981,-29.88428 15.686093,-3.3714 14.42782,-2.92054 17.74222,-6.35764 5.814561,-6.02988 10.28742,-6.96425 21.690599,-4.53113 3.441957,0.7344 4.14791,0.74074 7.535372,0.0676 15.45321,-3.07058 31.98395,-2.80749 43.84529,0.69778 2.54016,0.75067 7.21335,1.64923 10.38487,1.99679 6.41478,0.703 8.45431,1.61775 9.30436,4.1731 0.75997,2.28452 0.83449,2.34581 7.15209,5.88161 31.94177,17.87701 27.56372,35.25649 28.36722,57.88945 1.57509,44.36801 -7.2925,69.0308 -46.93839,83.00866 -16.17245,5.70188 -41.83579,3.92293 -54.60266,2.41801 z m -62.640419,-96.4435 c 4.501949,-2.31264 7.81752,-7.2938 8.217537,-12.34561 1.041836,-13.15747 -15.593885,-10.64146 -19.049101,2.88101 -2.064593,8.0801 3.707853,13.12405 10.831564,9.4646 z"
       id="path62"
       inkscape:connector-curvature="0"
       sodipodi:nodetypes="ssssssssscssssssss"
       inkscape:export-xdpi="121.14231"
       inkscape:export-ydpi="121.14231" />
    <path
       style="fill:#c4d500;stroke-width:0.48948142"
       d="M 101.15022,332.88545 C 63.932585,327.90014 33.398175,317.78851 22.664125,286.91629 11.16151,253.83355 18.06249,198.31622 44.452581,191.4217 c 1.599743,-0.41792 5.971385,-1.42258 9.714765,-2.23254 14.629091,-3.16531 13.438544,-2.71762 17.147824,-6.44816 5.786409,-5.81955 9.845728,-6.63351 21.101254,-4.23111 3.542316,0.75607 4.005643,0.74668 9.107466,-0.18461 15.77933,-2.88034 30.98497,-2.47937 42.99924,1.13387 2.1769,0.6547 6.36448,1.46459 9.30571,1.79975 7.33828,0.83622 9.01169,1.68611 9.64552,4.89875 0.22516,1.1413 1.03072,1.79996 4.55096,3.7211 34.61377,18.89008 32.78364,38.52778 32.78364,63.412 0,12.83115 -3.458,21.99269 -5.44201,31.28824 -5.77977,27.07986 -19.21315,42.19455 -56.91941,49.34551 -11.533,2.18725 -31.07594,-0.20569 -37.29732,-1.03905 z m -66.260469,-95.1651 c 4.501949,-2.31264 7.81752,-7.2938 8.217537,-12.34561 1.041836,-13.15747 -15.593885,-10.64146 -19.049101,2.88101 -2.064593,8.0801 3.707853,13.12405 10.831564,9.4646 z"
       id="path60"
       inkscape:connector-curvature="0"
       sodipodi:nodetypes="sssssssssssssssssss"
       inkscape:export-xdpi="121.14231"
       inkscape:export-ydpi="121.14231" />
    <path
       style="fill:#a3c80d;stroke-width:0.48948142"
       d="M 101.49551,334.84557 C 64.277863,329.86026 36.913927,325.70863 26.179885,294.83639 14.677261,261.75366 18.06249,198.31622 44.452581,191.4217 c 1.599743,-0.41792 5.971385,-1.42258 9.714765,-2.23254 14.629091,-3.16531 13.438544,-2.71762 17.147824,-6.44816 5.786409,-5.81955 9.845728,-6.63351 21.101254,-4.23111 3.542316,0.75607 4.005643,0.74668 9.107466,-0.18461 15.77933,-2.88034 30.98497,-2.47937 42.99924,1.13387 2.1769,0.6547 6.36448,1.46459 9.30571,1.79975 7.33828,0.83622 9.01169,1.68611 9.64552,4.89875 0.22516,1.1413 1.03072,1.79996 4.55096,3.7211 34.61377,18.89008 30.0214,39.64786 30.0214,64.53207 0,50.2109 -11.46227,70.71995 -62.11177,80.32561 -11.53299,2.18723 -28.21808,0.94249 -34.43944,0.10914 z M 34.889751,237.72035 c 4.501949,-2.31264 7.81752,-7.2938 8.217537,-12.34561 1.041836,-13.15747 -15.593885,-10.64146 -19.049101,2.88101 -2.064593,8.0801 3.707853,13.12405 10.831564,9.4646 z M 145.3098,232.81238 c 6.59997,-1.00134 6.9924,-16.80821 0.57868,-23.31003 -2.11484,-2.1439 -1.96877,-2.72276 1.33799,-5.3022 5.42658,-4.23303 9.31238,-9.81799 10.0399,-14.43009 0.88903,-5.6361 -34.31156,-5.09821 -42.2094,0.64499 -2.83168,2.05916 -2.30443,2.07977 -7.28156,-0.28462 -7.56339,-3.59304 -15.772824,-5.8572 -24.195769,-6.67325 -6.269527,-0.6074 -11.552233,5.41301 -12.551064,14.30377 -0.331994,2.95527 -0.331994,2.95527 -5.197657,5.42115 -8.23801,4.17497 -14.337416,9.95766 -14.337416,13.59291 0,5.18459 22.900968,8.40909 44.772774,6.30407 5.790312,-0.55729 5.790312,-0.55729 7.651122,0.69106 5.28674,3.54667 15.11666,7.43909 21.95761,8.69471 7.53368,1.38279 12.0758,1.46401 19.43479,0.34753 z M 99.551958,216.49321 c -19.135922,-3.68601 -21.571779,-15.9375 -4.244879,-21.3502 17.715721,-5.53416 41.636741,1.87661 38.377051,11.88926 -2.39145,7.34575 -19.90746,12.20092 -34.132172,9.46094 z"
       id="path58"
       inkscape:connector-curvature="0"
       sodipodi:nodetypes="ssssssssssssssssssssssssssssscssssss"
       inkscape:export-xdpi="121.14231"
       inkscape:export-ydpi="121.14231" />
    <path
       style="fill:#ec750d;stroke-width:0.48948142"
       d="M 101.3574,335.68562 C 64.139749,330.70034 35.351379,323.7286 24.617329,292.85637 21.804066,284.76514 17.539043,250.0687 17.808306,241.35307 18.640004,214.43294 24.516849,196.63 44.452581,191.4217 c 1.599743,-0.41792 5.971385,-1.42258 9.714765,-2.23254 14.629091,-3.16531 13.438544,-2.71762 17.147824,-6.44816 5.786409,-5.81955 9.845728,-6.63351 21.101254,-4.23111 3.542316,0.75607 4.005643,0.74668 9.107466,-0.18461 15.77933,-2.88034 30.98497,-2.47937 42.99924,1.13387 2.1769,0.6547 6.36448,1.46459 9.30571,1.79975 7.33828,0.83622 9.01169,1.68611 9.64552,4.89875 0.22516,1.1413 1.03072,1.79996 4.55096,3.7211 34.61377,18.89008 34.44098,35.72761 34.44098,60.61181 0,11.57214 -4.90321,19.49445 -6.79902,28.50765 -6.32998,30.0946 -20.47983,48.90641 -59.4561,56.29826 -11.51952,1.4182 -23.29358,1.41197 -34.85378,0.38915 z M 34.889751,235.64133 c 4.501949,-2.31264 6.729858,-6.19336 6.947954,-11.25661 0.455881,-10.58343 -13.152385,-8.56241 -16.607601,4.96006 -2.064585,8.08009 2.535936,9.95599 9.659647,6.29655 z M 143.8423,233.46008 c 5.57315,-0.72509 5.65746,-0.79095 6.35131,-4.96105 1.32279,-7.95005 -0.0576,-14.88941 -3.82777,-19.24235 -1.95033,-2.25181 -1.92931,-2.45544 0.42384,-4.10859 10.62197,-7.46215 13.90248,-17.36447 6.06685,-18.31298 -20.3687,-2.46567 -31.97858,-1.52965 -37.90462,3.05594 -2.63771,2.04106 -2.57603,2.03571 -5.59341,0.48569 -22.658748,-11.63979 -37.079497,-8.95233 -38.74703,7.2209 -0.306119,2.96894 -0.306119,2.96894 -3.809054,4.58721 -8.874777,4.0999 -15.795061,10.51343 -15.795061,14.63838 0,5.50703 21.465512,8.76383 44.520907,6.75484 6.357858,-0.55401 6.357858,-0.55401 8.290508,0.68278 6.75888,4.32531 16.1644,7.78708 24.32315,8.95232 8.94246,1.27718 7.90665,1.26088 15.70038,0.24691 z"
       id="path56"
       inkscape:connector-curvature="0"
       sodipodi:nodetypes="csssssssssssssccssssssccsssssssccs"
       inkscape:export-xdpi="121.14231"
       inkscape:export-ydpi="121.14231" />
    <path
       style="fill:#e96000;stroke-width:0.48948142"
       d="m 101.3574,335.68562 c -37.217651,-4.98531 -68.154532,-22.84717 -78.888583,-53.71941 -3.482638,-10.0164 -5.572826,-17.49072 -4.42785,-28.20538 2.636696,-24.6743 8.011601,-57.53206 26.411614,-62.33913 1.599743,-0.41792 5.971385,-1.42258 9.714765,-2.23254 14.629091,-3.16531 13.438544,-2.71762 17.147824,-6.44816 5.786409,-5.81955 9.845728,-6.63351 21.101254,-4.23111 3.542316,0.75607 4.005643,0.74668 9.107466,-0.18461 15.77933,-2.88034 30.98497,-2.47937 42.99924,1.13387 2.1769,0.6547 6.36448,1.46459 9.30571,1.79975 7.33828,0.83622 9.01169,1.68611 9.64552,4.89875 0.22516,1.1413 1.03072,1.79996 4.55096,3.7211 34.61377,18.89008 32.78364,35.16757 32.78364,60.05178 0,50.21089 -16.39673,76.13225 -65.28835,84.9459 -11.55186,2.08244 -27.94186,1.64255 -34.16321,0.80919 z m -9.866717,-54.92994 c 10.456607,0.08 20.357687,1.19259 28.273517,-0.42109 1.68898,-0.25558 7.77228,-1.41494 8.89084,-1.9162 1.11856,-0.50127 6.2359,-2.23635 8.90975,-3.14692 5.92267,-2.01698 16.06666,-2.91282 18.69144,-5.20051 1.05088,-0.91591 8.17651,-4.40163 9.42019,-5.35034 12.24304,-9.33904 12.57583,-30.00564 16.41436,-47.61096 1.07975,-4.95226 7.61317,-6.49858 -0.1306,-11.75257 -7.82747,-5.31078 -8.43797,-5.5698 -8.45237,-3.58603 -0.0294,4.04298 -1.83186,6.50651 -6.57683,11.57724 -2.61019,2.78938 -1.04764,13.08552 -0.0878,14.99287 4.28375,8.51216 -11.35295,20.11876 -16.29132,22.11786 -11.48214,4.64813 -16.57737,3.74119 -35.20651,4.94321 -6.35074,0.40977 -21.319473,-3.31811 -25.180566,-3.93077 -28.253004,-4.48314 -40.977612,-6.09744 -41.033105,-15.28878 -0.01339,-2.22773 -1.048449,-5.02258 -3.57499,-11.00091 -5.556835,-13.14867 -1.590629,-18.61684 16.510632,-27.85765 2.237295,-1.14215 3.931994,-4.24336 2.318833,-4.24336 -0.429981,0 -14.069798,2.95556 -17.21939,3.73119 -13.888767,3.42036 -18.855221,12.48855 -23.88933,33.38808 -2.035495,8.45058 5.003216,21.43108 8.821103,27.34281 8.210443,12.71334 21.186807,18.00161 37.448922,19.7042 7.703325,1.45015 16.2324,4.12541 21.943196,3.50863 z m 52.351617,-47.2956 c 5.57315,-0.72509 5.65746,-0.79095 6.35131,-4.96105 1.32279,-7.95005 -0.0576,-14.88941 -3.82777,-19.24235 -1.95033,-2.25181 -1.92931,-2.45544 0.42384,-4.10859 10.62197,-7.46215 13.90248,-17.36447 6.06685,-18.31298 -20.3687,-2.46567 -31.97858,-1.52965 -37.90462,3.05594 -2.63771,2.04106 -2.57603,2.03571 -5.59341,0.48569 -22.658748,-11.63979 -37.079497,-8.95233 -38.74703,7.2209 -0.306119,2.96894 -0.306119,2.96894 -3.809054,4.58721 -8.874777,4.0999 -15.795061,10.51343 -15.795061,14.63838 0,5.50703 21.465512,8.76383 44.520907,6.75484 6.357858,-0.55401 6.357858,-0.55401 8.290508,0.68278 6.75888,4.32531 16.1644,7.78708 24.32315,8.95232 8.94246,1.27718 7.90665,1.26088 15.70038,0.24691 z"
       id="path54"
       inkscape:connector-curvature="0"
       sodipodi:nodetypes="ssssssssssssssscccssssscssssscssssssccssccsssssssccs"
       inkscape:export-xdpi="121.14231"
       inkscape:export-ydpi="121.14231" />
    <path
       style="fill:#e95e00;stroke-width:0.48948142"
       d="M 102.39324,334.98559 C 65.175588,330.00027 32.616897,320.75856 21.882846,289.88632 10.380232,256.80359 18.06249,198.31622 44.452581,191.4217 c 1.599743,-0.41792 5.971385,-1.42258 9.714765,-2.23254 14.629091,-3.16531 13.438544,-2.71762 17.147824,-6.44816 5.786409,-5.81955 9.845728,-6.63351 21.101254,-4.23111 3.542316,0.75607 4.005643,0.74668 9.107466,-0.18461 15.77933,-2.88034 30.98497,-2.47937 42.99924,1.13387 2.1769,0.6547 6.36448,1.46459 9.30571,1.79975 7.33828,0.83622 9.01169,1.68611 9.64552,4.89875 0.22516,1.1413 1.03072,1.79996 4.55096,3.7211 34.61377,18.89008 32.23119,32.36739 32.23119,57.25159 0,50.2109 -13.94828,78.98049 -64.59778,88.58615 -11.53301,2.18724 -27.04413,0.10244 -33.26549,-0.7309 z m 2.09101,-0.37348 c -2.07609,-0.95368 -1.04323,-2.0599 1.9233,-2.0599 1.61603,0 2.93823,0.1725 2.93823,0.38332 0,0.49015 4.17416,0.47788 4.65902,-0.0137 0.49296,-0.49978 6.03786,-0.40557 7.25175,0.1232 1.26271,0.55007 1.48911,0.50121 -5.83385,1.25922 -6.31999,0.65421 -6.31999,0.65421 -0.24307,0.41796 5.24541,-0.20393 11.17782,-0.98605 8.60053,-1.13389 -0.52551,-0.0302 -0.74225,-0.27552 -0.53852,-0.60967 0.23331,-0.3827 1.48221,-0.46142 3.95643,-0.24939 3.55422,0.30457 12.20181,-1.10311 9.49385,-1.54543 -1.14549,-0.1871 -1.28696,-0.50499 -0.79875,-1.79472 0.32061,-0.84697 2.13568,-1.09064 2.13568,-0.28673 0,0.5991 1.79788,0.66331 2.02563,0.0723 0.0891,-0.23128 1.52946,-0.54293 3.20073,-0.69253 2.062,-0.1846 2.93717,-0.10555 2.72289,0.24596 -0.21005,0.34449 0.14728,0.40017 1.06669,0.16624 2.20387,-0.56074 4.88836,-1.85429 4.31313,-2.07833 -0.28949,-0.11274 -1.15621,0.12632 -1.92609,0.5312 -0.76986,0.40488 -1.51747,0.54976 -1.66136,0.32191 -0.14389,-0.22785 -0.97262,-0.57065 -1.84162,-0.76176 -2.3017,-0.50622 -2.23898,-2.24051 0.081,-2.24051 0.91358,0 1.75133,0.27462 1.86169,0.61025 0.15951,0.4851 0.47158,0.4851 1.52184,0 1.64448,-0.75957 2.90252,-0.79268 2.4587,-0.0646 -0.23244,0.38126 0.14322,0.4396 1.24751,0.19371 1.17297,-0.26116 1.48696,-0.19903 1.21864,0.24109 -0.24246,0.39771 -0.0623,0.53454 0.54687,0.41559 0.49959,-0.0975 0.90834,-0.50393 0.90834,-0.90309 0,-0.39916 0.40875,-0.80555 0.90834,-0.9031 0.62684,-0.12236 0.7919,0.0137 0.53258,0.43904 -0.24498,0.40184 -0.17768,0.49224 0.19343,0.25974 0.31305,-0.19615 0.43237,-0.58109 0.2651,-0.85545 -0.63682,-1.04453 2.31085,-3.37572 4.26842,-3.37572 1.55719,0 1.85367,-0.16501 1.85367,-1.03181 0,-0.61734 0.39057,-1.13534 0.97231,-1.28954 1.10781,-0.29369 1.33368,-1.62131 0.27583,-1.62131 -0.38306,0 -0.83533,0.44356 -1.00506,0.98568 -0.47489,1.51678 -2.48956,1.3043 -2.88789,-0.30459 -0.53434,-2.15827 4.10275,-2.98657 5.25605,-0.93885 0.30182,0.53587 0.85563,1.22299 1.23073,1.52695 0.37507,0.30393 0.55071,0.7679 0.39027,1.03103 -0.17407,0.28552 0.30414,0.38977 1.18599,0.25857 1.25674,-0.18697 1.44435,-0.39643 1.25491,-1.40107 -0.1225,-0.64968 -0.0333,-1.29993 0.19821,-1.44498 0.23153,-0.14505 0.42096,-0.81816 0.42096,-1.49581 0,-0.6959 0.21156,-1.09952 0.48614,-0.92749 0.2674,0.16752 0.48617,-0.0412 0.48617,-0.46376 0,-0.98169 1.26495,-1.00473 1.634,-0.0298 0.37611,0.99359 2.31319,0.6493 2.95964,-0.52605 0.28103,-0.51097 0.83912,-1.19644 1.24019,-1.52326 0.59978,-0.48872 0.61669,-0.70947 0.0953,-1.24343 -0.52357,-0.53618 -0.79679,-0.43469 -1.56919,0.58286 -0.93525,1.23207 -0.93525,1.23207 -0.94607,-0.36962 -0.0107,-1.59495 -3.5e-4,-1.60171 2.41996,-1.60171 2.24798,0 3.08394,-0.51826 1.96585,-1.21878 -1.2387,-0.77607 0.53697,-2.70498 2.50052,-2.71633 1.23116,-0.007 1.28975,-0.11123 1.01797,-1.80909 -0.20735,-1.29525 -0.13045,-1.70256 0.27363,-1.4494 0.30912,0.19367 0.56203,0.72924 0.56203,1.19016 0,0.46092 0.44672,1.12083 0.9927,1.46649 0.94874,0.60064 0.98222,0.54044 0.75627,-1.35994 -0.16824,-1.41494 -0.0564,-1.98843 0.38796,-1.98843 0.3434,0 0.91317,-0.88709 1.26614,-1.97131 0.6656,-2.04451 2.60696,-3.00721 2.09982,-1.04129 -0.13194,0.51153 -0.013,1.07217 0.26421,1.24587 0.67286,0.42158 1.60057,-1.40337 1.22191,-2.40368 -0.38391,-1.0142 0.77248,-5.26219 1.33633,-4.90892 0.23397,0.14659 0.42543,0.0315 0.42543,-0.25538 0,-0.73087 -1.32484,-0.65404 -1.62266,0.0941 -0.13485,0.33884 -0.26247,-0.10472 -0.28357,-0.98566 -0.0371,-1.54658 0.0285,-1.60171 1.90623,-1.60171 1.94462,0 1.94462,0 1.94462,-3.94266 0,-3.61409 0.081,-3.94265 0.9723,-3.94265 0.54017,0 0.97231,0.32856 0.97231,0.73925 0,0.40658 0.17501,0.73924 0.38892,0.73924 0.80745,0 -1.34466,-1.5126 -1.34466,-2.84273 0,-0.75897 0.6097,-0.8899 0.84848,-0.8899 0.69412,0 0.82835,-1.59428 0.27787,-2.15231 -0.27614,-0.27996 2.26015,-1.59225 2.26015,-2.65953 0,-1.94053 -5.04108,-3.62064 -3.65831,-1.85675 1.81446,2.31454 3.22203,6.70498 4.38722,-5.11486 -0.60375,-3.90585 0.89649,-5.02315 0.1824,-8.48152 -0.73465,-3.04669 -2.23055,-7.48221 -0.94775,-9.27736 1.40773,-1.97004 1.60305,-0.683 1.80117,0.94665 0.10898,0.89632 0.48673,0.67516 0.48134,-2.30647 -0.009,-5.1365 -0.9791,-4.51321 -1.27376,-1.01107 -0.17104,2.03294 1.32194,1.22061 1.27376,1.01107 -0.0481,-0.20954 -0.6053,-1.45506 -1.27376,-1.01107 -1.52352,1.01198 -1.54342,-5.67695 -0.0315,-6.94893 0.47376,-0.3986 0.75404,-0.8623 0.58203,-1.55707 -0.29806,-1.20384 -0.28971,-2.29117 0.16464,-1.27212 0.15182,0.3405 0.0621,0.48866 0,0 -0.0621,-0.48867 0.15945,-0.0821 0,0 -0.84103,0.43298 -0.0416,-0.97992 -0.0348,-2.84171 0.005,-1.56297 -0.65556,-2.65495 -0.26327,-2.08696 0.38951,0.56401 -1.62009,-0.83984 -1.87682,-1.77983 -0.55798,-2.04301 1.07452,-3.44719 0.4425,-3.4552 -1.33821,-0.0171 -0.1716,-3.43309 0.49079,-4.24218 0.52714,-0.64389 0.38089,-1.07939 -0.92288,-2.74815 -1.41621,-1.81268 -3.41219,-2.68434 -3.41219,-1.49015 0,0.27105 0.32816,0.49283 0.72922,0.49283 0.4011,0 0.72924,0.32486 0.72924,0.7219 0,0.39704 0.43753,0.9593 0.9723,1.24942 1.27116,0.68966 1.33572,2.95699 0.0842,2.95699 -0.71025,0 -0.84524,-0.29609 -0.67406,-1.4785 0.19284,-1.3319 0.0836,-1.47849 -1.10118,-1.47849 -1.26831,0 -1.30933,-0.0836 -1.14903,-2.34094 0.17679,-2.48956 0.10954,-2.58738 -1.77838,-2.58738 -0.75625,0 -1.2154,0.27928 -1.2154,0.73925 0,0.40658 0.21878,0.73925 0.48617,0.73925 0.26738,0 0.48614,0.55444 0.48614,1.23209 0,1.49726 -0.75639,1.62949 -1.12597,0.19682 -0.14687,-0.56938 -0.48543,-0.89843 -0.75232,-0.7312 -0.26692,0.16721 -0.6249,0.075 -0.79555,-0.20487 -0.17064,-0.2799 -0.52787,-0.37259 -0.79384,-0.20594 -0.4511,0.28262 -0.33202,-1.27158 0.35572,-4.64267 0.20479,-1.00378 0.3395,-1.06732 1.0448,-0.49283 0.44533,0.36275 0.16285,-0.17825 -0.62772,-1.2022 -3.04402,-3.94258 -17.71974,-12.90775 -17.72629,-10.8287 -0.006,2.09071 -1.05467,4.7749 -1.52896,3.91573 -0.87952,-1.59321 -4.78832,0.86526 -4.78832,3.01162 0,0.93063 -1.17965,0.447 -1.37286,-0.56285 -0.14679,-0.76734 0.69404,-1.77508 3.93148,-4.71191 1.14436,-1.03811 1.40691,-1.0978 2.16713,-0.49283 0.78711,0.62637 0.80493,0.61068 0.1978,-0.17409 -0.53225,-0.688 -0.54584,-1.01071 -0.0671,-1.59542 0.81304,-0.9931 0.26683,-2.22402 -0.98687,-2.22402 -0.56241,0 -1.99126,-0.5755 -3.17526,-1.27892 -1.20827,-0.71782 -2.15272,-1.03111 -2.15272,-0.71411 0,0.31067 0.76569,0.88915 1.70154,1.28553 2.04692,0.86702 2.05291,0.91145 0.36618,2.72308 -1.56722,1.68329 -2.55388,1.84376 -2.55388,0.41537 0,-0.78021 -0.21851,-0.94858 -0.93277,-0.71876 -0.65351,0.21026 -0.9883,0.0358 -1.11829,-0.58284 -0.14519,-0.6909 -0.36966,-0.53126 -1.03208,0.73394 -0.84654,1.61688 -0.84654,1.61688 0.63193,2.24706 1.36397,0.58138 1.42321,0.70425 0.76492,1.58653 -0.91245,1.22293 -0.93705,2.18842 -0.0557,2.18842 0.37879,0 0.78638,-0.27721 0.90575,-0.61603 0.11937,-0.33883 0.38241,-0.46028 0.58454,-0.26988 0.20213,0.19039 -6.2e-4,0.71946 -0.45085,1.17574 -0.61077,0.61915 -0.95841,0.68763 -1.37049,0.2699 -0.30368,-0.30786 -1.11,-0.55266 -1.79183,-0.54404 -1.13825,0.0144 -1.16964,0.0696 -0.38352,0.67435 0.91893,0.70699 0.54482,1.28986 -1.24358,1.93744 -0.48075,0.17408 -0.80866,0.6991 -0.72923,1.16751 0.20327,1.19867 -1.46815,1.42093 -2.36282,0.31418 -0.71042,-0.87879 -0.72374,-0.87871 -0.44738,0.004 0.15666,0.49952 0.42346,1.49751 0.59288,2.21774 0.16943,0.72022 0.54214,1.6096 0.82828,1.97635 0.96675,1.2392 0.93395,12.20519 -0.0507,16.93487 -0.99572,4.78311 -0.78716,5.22934 0.45061,0.96415 0.81121,-2.79523 0.81121,-2.79523 0.85078,0.7176 0.0604,5.3556 -0.82783,7.08304 -3.6418,7.08304 -1.49199,0 -2.10179,-0.17724 -1.8772,-0.54562 0.22129,-0.36299 0.004,-0.43981 -0.65002,-0.22947 -0.54047,0.1739 -1.93517,0.50602 -3.09933,0.73806 -2.11668,0.42188 -2.11668,0.42188 -0.29361,0.47587 1.8794,0.0556 2.42083,0.70168 1.03869,1.23933 -0.49751,0.19354 -0.69197,0.66342 -0.53167,1.28482 0.29408,1.14 -2.26407,1.47513 -2.77575,0.36363 -0.22686,-0.49284 -0.34029,-0.49284 -0.56716,0 -0.3401,0.73877 -2.82108,0.81263 -4.09425,0.12187 -0.61873,-0.33568 -1.01219,-0.32792 -1.22685,0.0241 -0.51247,0.8406 -9.08211,0.46517 -8.76077,-0.38379 0.14074,-0.37174 0.0943,-0.57952 -0.10318,-0.46175 -1.05383,0.62855 -2.70982,-0.67237 -1.7719,-1.39195 0.86957,-0.66716 0.83024,-0.71194 -0.63806,-0.72666 -1.12575,-0.0112 -1.49333,0.17294 -1.31026,0.65658 0.28776,0.76018 -1.6707,1.29909 -4.72114,1.29909 -1.68533,0 -1.88384,-0.12983 -1.88384,-1.23208 0,-0.83167 -0.2765,-1.24335 -0.85078,-1.26671 -0.73178,-0.0299 -0.71726,-0.0876 0.10383,-0.413 0.85531,-0.33901 0.812,-0.41463 -0.41631,-0.72715 -1.03052,-0.2622 -1.53174,-0.12907 -2.01882,0.53619 -0.54649,0.74645 -0.80376,0.78854 -1.64327,0.26894 -1.34204,-0.83064 -1.39485,-0.80177 -1.12748,0.61607 0.19668,1.04305 0.0496,1.23207 -0.9587,1.23207 -1.67276,0 -1.97991,-0.50293 -0.98952,-1.62035 0.81621,-0.92088 0.8061,-0.99204 -0.24202,-1.70181 -0.60162,-0.40739 -1.09384,-1.01002 -1.09384,-1.33917 0,-0.32914 -1.31262,-1.17259 -2.91692,-1.87432 -2.77943,-1.21573 -3.56536,-1.21846 -2.37154,-0.008 0.29997,0.30409 0.82476,0.4442 1.16621,0.31137 0.34145,-0.13282 0.74138,-0.0437 0.88873,0.19795 0.14815,0.24301 -1.29667,0.42324 -3.23237,0.40321 -3.68166,-0.0381 -5.637779,-1.84402 -2.8095,-2.59379 0.83748,-0.22201 1.48749,-1.13867 0.80745,-1.13867 -0.11183,0 -0.58524,-0.14856 -1.05206,-0.33016 -0.50717,-0.1973 -0.72915,-0.134 -0.55158,0.15724 0.17978,0.29488 -0.26423,0.40389 -1.1241,0.27595 -1.238116,-0.18421 -1.355966,-0.33518 -0.914522,-1.17135 0.472792,-0.89557 0.382472,-0.93708 -1.348451,-0.61965 -2.036842,0.37357 -2.715637,0.70233 -1.45007,0.70233 0.445644,0 0.810272,0.22177 0.810272,0.49284 0,0.27106 -0.875088,0.49283 -1.944619,0.49283 -1.955111,0 -2.680102,-0.74205 -1.09385,-1.11959 0.467912,-0.11137 -0.02429,-0.12758 -1.09385,-0.0361 -1.069538,0.0916 -5.305624,0.26629 -9.413527,0.38832 -7.130436,0.2118 -10.973734,0.7673 -5.308814,0.7673 2.387153,0 2.731966,0.12782 2.99132,1.10886 0.645922,2.44339 0.420242,2.8338 -1.638203,2.8338 -1.936089,0 -3.182723,-2.81999 -1.336925,-3.02425 0.334232,-0.037 -1.57999,-0.33677 -4.25384,-0.66617 -4.86155,-0.59892 -4.86155,-0.59892 -1.701544,-0.74094 3.159998,-0.14201 3.159998,-0.14201 -0.486149,-0.50014 -2.005394,-0.19696 -5.06816,-0.51145 -6.806152,-0.69887 -2.249368,-0.24256 -2.949853,-0.19267 -2.430776,0.17309 0.624215,0.43985 0.602588,0.51494 -0.150226,0.5214 -0.483696,0.004 -0.744252,0.22931 -0.579005,0.50038 0.451649,0.7408 -1.75267,0.58825 -3.296565,-0.22814 -0.743579,-0.39319 -1.658178,-0.59578 -2.03244,-0.45017 -0.483752,0.18818 -0.725352,-0.20979 -0.835731,-1.37661 -0.143155,-1.51334 -0.443255,-1.7814 -3.849085,-3.43796 -12.643135,-6.14945 -9.139037,-18.18056 8.029348,-27.56828 4.025234,-2.20101 3.900115,-2.08546 4.357301,-4.02444 0.415922,-1.76401 0.635405,-1.77758 -10.594373,0.65459 -24.463853,5.29833 -37.48917,23.51826 -38.375561,53.68003 -0.123476,4.2014 -0.08116,6.15253 0.09402,4.33587 0.175188,-1.81668 0.591983,-3.57978 0.926214,-3.91802 0.724125,-0.7328 0.814264,-1.59111 0.121537,-1.15708 -0.276621,0.17329 -0.486148,-0.24922 -0.486148,-0.98031 0,-1.28489 0,-1.28489 1.701536,0.39032 1.810079,1.78207 2.165256,2.80772 0.972313,2.80772 -0.401084,0 -0.729239,0.33265 -0.729239,0.73925 0,0.40659 -0.300805,0.73924 -0.668462,0.73924 -0.36765,0 -0.806705,0.70074 -0.97568,1.55721 -0.331859,1.68212 0.0056,2.49369 0.617721,1.48855 0.20855,-0.34207 0.41492,1.62843 0.458614,4.37885 0.06773,4.26026 -0.0283,4.95884 -0.648695,4.71754 -0.791298,-0.30782 -0.85096,0.22226 -0.24196,2.14999 0.383994,1.21549 0.389886,1.21676 0.437701,0.0941 0.06485,-1.52395 1.020761,-0.86537 1.020761,0.7033 0,0.77524 -0.199532,1.10707 -0.53814,0.89491 -0.377236,-0.23634 -0.432827,0.16018 -0.185905,1.32622 0.507022,2.39428 0.683044,2.5432 1.98445,1.67877 1.066348,-0.70828 1.17037,-0.70809 1.17037,0.004 0,0.4353 0.233119,0.63364 0.527783,0.44902 0.366295,-0.22949 0.460113,0.5962 0.306617,2.69864 -0.247275,3.38691 0.440586,4.29352 2.801768,3.69276 1.084383,-0.27588 1.225367,-0.15779 1.225367,1.02647 0,0.98706 -0.191364,1.26378 -0.729231,1.05456 -0.496016,-0.19297 -0.729231,0.0267 -0.729231,0.68652 0,0.53383 0.327979,0.97019 0.729231,0.97019 0.462405,0 0.729231,0.47183 0.729231,1.28956 0,1.05886 -0.178915,1.24212 -1.000072,1.02444 -0.55535,-0.14723 -0.928258,-0.0468 -0.838616,0.22591 0.0888,0.27005 0.30244,0.41892 0.47475,0.33084 0.17231,-0.0881 0.907857,0.39427 1.634523,1.0719 0.900098,0.83934 1.390391,1.03571 1.538148,0.61605 0.485259,-1.37823 2.217408,-0.69396 1.930061,0.76245 -0.354222,1.79551 0.01202,2.29529 2.216582,3.02379 1.689256,0.55825 2.436771,1.70404 1.361342,2.08667 -0.736606,0.26207 -0.7679,4.18444 -0.04056,5.07298 0.890807,1.08811 1.737239,0.20604 1.050516,-1.09476 -0.897292,-1.69962 0,-1.61596 1.699877,0.1585 1.646883,1.71915 2.061161,2.68079 1.154891,2.68079 -0.267378,0 -0.48614,-0.22177 -0.48614,-0.49284 0,-0.27105 -0.21877,-0.49283 -0.486157,-0.49283 -0.267386,0 -0.486156,0.39738 -0.486156,0.88306 0,1.06817 4.201608,5.37136 4.725752,4.84001 0.203917,-0.2067 -0.01034,-0.59201 -0.47596,-0.85619 -0.929244,-0.52718 -1.14278,-1.41705 -0.340035,-1.41705 0.278657,0 0.77089,0.22589 1.093826,0.50195 2.312486,1.97692 2.990455,2.45504 3.48126,2.45504 1.219067,0 1.638178,1.04145 0.955737,2.37492 -0.73344,1.43311 -0.311868,2.26084 0.909484,1.78573 0.579462,-0.22541 0.714297,-0.68872 0.506678,-1.74107 -0.22055,-1.11792 -0.10686,-1.43391 0.515911,-1.43391 0.636143,0 0.772268,0.42656 0.668471,2.09452 -0.120327,1.9335 -0.04312,2.08495 1.004513,1.96978 0.735363,-0.0808 1.059221,0.0927 0.919969,0.49284 -0.118178,0.33968 -0.574187,0.58678 -1.013315,0.54914 -1.022797,-0.0877 -1.015238,0.29193 0.02109,1.06009 0.667886,0.49507 1.095149,0.43708 2.309238,-0.31346 1.769286,-1.09373 2.218955,-1.14818 2.218955,-0.26863 0,0.36078 -0.5385,0.94812 -1.196647,1.30519 -1.196638,0.64923 -1.196638,0.64923 0.850769,2.52723 2.095181,1.92183 3.508473,2.39706 3.873141,1.30238 0.112871,-0.33882 0.600054,0.15531 1.082628,1.09803 0.81884,1.59968 0.902919,1.64416 1.259675,0.66649 0.471857,-1.29306 1.539254,-2.02617 1.79917,-1.23573 0.104904,0.31906 0.709159,0.58009 1.342808,0.58009 1.423641,0 3.249368,3.26639 2.19498,3.92699 -1.151958,0.72173 0.213166,0.90922 2.818256,0.38704 2.110259,-0.42298 2.688438,-0.39103 3.074861,0.16988 0.365934,0.53121 0.532881,0.54848 0.722489,0.0748 0.395706,-0.98863 1.624007,-0.70908 1.624007,0.36962 0,0.59652 -0.324107,0.98567 -0.820901,0.98567 -0.679444,0 -0.629336,0.18092 0.290777,1.04989 0.879681,0.83082 0.974894,1.13778 0.456281,1.47095 -0.360467,0.23158 -0.509202,0.42446 -0.330527,0.4286 0.178658,0.005 0.670899,0.14215 1.093834,0.30669 0.504625,0.19631 0.76899,0.0269 0.76899,-0.49283 0,-0.64618 0.581714,-0.79198 3.160006,-0.79198 3.514125,0 3.683453,0.17705 1.965676,2.05505 -0.978806,1.0701 -1.061988,1.35718 -0.460907,1.59102 0.416042,0.16183 0.604888,0.0744 0.436411,-0.20188 -0.163357,-0.26797 0.0675,-0.4872 0.512913,-0.4872 0.494894,0 0.708237,0.26865 0.548488,0.69068 -0.155492,0.41079 0.119229,0.79161 0.67789,0.93971 0.516625,0.13697 0.816732,0.0479 0.666883,-0.19786 -0.149834,-0.24577 0.615557,-0.44686 1.700879,-0.44686 1.085313,0 1.973307,0.22177 1.973307,0.49282 0,0.27107 0.328155,0.49284 0.729231,0.49284 0.401068,0 0.729231,-0.22177 0.729231,-0.49284 0,-0.27105 0.546917,-0.49282 1.21538,-0.49282 0.668462,0 1.215371,0.22177 1.215371,0.49282 0,0.27107 0.765711,0.49284 1.701545,0.49284 0.935848,0 1.701528,-0.22177 1.701528,-0.49284 0,-0.27105 0.328162,-0.49282 0.729246,-0.49282 1.083615,0 0.965604,2.44827 -0.121544,2.52132 -0.763251,0.0513 -0.75861,0.0812 0.04512,0.29136 0.601577,0.15726 0.816163,0.54325 0.653199,1.17491 -0.178001,0.69009 0.01194,0.94073 0.712831,0.94073 0.551382,0 0.820299,-0.22174 0.635854,-0.52427 -0.216686,-0.35543 0.282873,-0.42092 1.551326,-0.20337 2.870167,0.49225 3.609256,0.76139 3.333414,1.21387 -0.139244,0.22837 0.02172,0.52757 0.357552,0.66485 0.93227,0.38102 5.0902,0.30596 4.25686,-0.0769 z M 143.8423,233.46008 c 5.57315,-0.72509 5.65746,-0.79095 6.35131,-4.96105 1.32279,-7.95005 -0.0576,-14.88941 -3.82777,-19.24235 -1.95033,-2.25181 -1.92931,-2.45544 0.42384,-4.10859 10.62197,-7.46215 13.90248,-17.36447 6.06685,-18.31298 -20.3687,-2.46567 -31.97858,-1.52965 -37.90462,3.05594 -2.63771,2.04106 -2.57603,2.03571 -5.59341,0.48569 -22.658748,-11.63979 -37.079497,-8.95233 -38.74703,7.2209 -0.306119,2.96894 -0.306119,2.96894 -3.809054,4.58721 -8.874777,4.0999 -15.795061,10.51343 -15.795061,14.63838 0,5.50703 21.465512,8.76383 44.520907,6.75484 6.357858,-0.55401 6.357858,-0.55401 8.290508,0.68278 6.75888,4.32531 16.1644,7.78708 24.32315,8.95232 8.94246,1.27718 7.90665,1.26088 15.70038,0.24691 z"
       id="path52"
       inkscape:connector-curvature="0"
       sodipodi:nodetypes="sssssssssssssscssccssccscssccccccscsccssccsccccsscssscccsscscsccscccsccscsccscccccsscssssssscssccscccccccccccccsccssscsssssssssccccccccscscccsssccssscscsccccssccscccsscsccscssccsccccccsscccscssccscccccsscccccssscccscscsccsccccccssccssccsssssscssssssscscscsssssccssscscscsssssscsssscsssscscsscsccccsssscssscccsscccscccsssssssssscssccccccssccsssssssccs"
       inkscape:export-xdpi="121.14231"
       inkscape:export-ydpi="121.14231" />
    <path
       style="fill:#74ab1f;stroke-width:0.48948142"
       d="M 20.545457,284.88865 C 9.0428415,251.80592 18.06249,198.31622 44.452581,191.4217 c 1.599743,-0.41792 5.971385,-1.42258 9.714765,-2.23254 14.629091,-3.16531 13.438544,-2.71762 17.147824,-6.44816 5.786409,-5.81955 9.845728,-6.63351 21.101254,-4.23111 3.542316,0.75607 4.005643,0.74668 9.107466,-0.18461 15.77933,-2.88034 30.98497,-2.47937 42.99924,1.13387 2.1769,0.6547 6.36448,1.46459 9.30571,1.79975 7.33828,0.83622 9.01169,1.68611 9.64552,4.89875 0.22516,1.1413 1.03072,1.79996 4.55096,3.7211 34.61377,18.89008 31.67875,36.28764 31.67875,61.17185 0,50.21089 -13.76685,75.2114 -64.41634,84.81706 -0.70781,0.13422 -6.74897,-0.64593 -7.47607,-0.55559 -8.42903,1.04722 -16.54069,-0.70987 -23.3274,-0.70004 C 70.122043,337.5385 31.449156,313.32682 20.545457,284.88865 Z M 122.715,334.72762 c 52.01928,-6.34568 73.88116,-32.15628 75.42425,-62.43297 0.35118,-6.89054 2.88085,-30.38241 2.7826,-33.3456 -0.47857,-14.4339 1.40021,-18.14809 -7.94673,-25.79915 -6.83531,-5.59509 -29.32755,-19.93856 -29.81597,-19.01385 -0.0513,0.0972 -0.82726,1.67183 -1.72422,3.49909 -0.90514,1.84396 -3.03082,4.85515 -4.77704,6.76714 -3.14619,3.44487 -3.14619,3.44487 -1.90056,6.6012 4.43544,11.23916 2.17209,25.80815 -4.2956,27.65059 -13.49659,3.84472 -33.76675,0.59748 -47.39571,-7.59271 -2.63363,-1.58266 -2.63363,-1.58266 -8.348287,-1.05401 -46.83848,4.33294 -66.607281,-13.86485 -34.270255,-31.54684 4.025236,-2.20102 3.900115,-2.08545 4.357295,-4.02444 0.415929,-1.76402 0.635404,-1.77759 -10.594366,0.65458 -19.246028,4.16834 -28.251897,12.67536 -34.971022,33.03394 -12.4967805,37.86461 4.198034,72.34116 45.866417,94.71904 21.54046,11.56822 35.905558,14.53154 57.609198,11.88399 z m 21.1273,-101.26754 c 5.57315,-0.72509 5.65746,-0.79095 6.35131,-4.96105 1.32279,-7.95005 -0.0576,-14.88941 -3.82777,-19.24235 -1.95033,-2.25181 -1.92931,-2.45544 0.42384,-4.10859 10.62197,-7.46215 13.90248,-17.36447 6.06685,-18.31298 -20.3687,-2.46567 -31.97858,-1.52965 -37.90462,3.05594 -2.63771,2.04106 -2.57603,2.03571 -5.59341,0.48569 -22.658748,-11.63979 -37.079497,-8.95233 -38.74703,7.2209 -0.306119,2.96894 -0.306119,2.96894 -3.809054,4.58721 -8.874777,4.0999 -15.795061,10.51343 -15.795061,14.63838 0,5.50703 21.465512,8.76383 44.520907,6.75484 6.357858,-0.55401 6.357858,-0.55401 8.290508,0.68278 6.75888,4.32531 16.1644,7.78708 24.32315,8.95232 8.94246,1.27718 7.90665,1.26088 15.70038,0.24691 z"
       id="path50"
       inkscape:connector-curvature="0"
       sodipodi:nodetypes="cssssssssssssccssssccssscsscssssssccsssssssccs"
       inkscape:export-xdpi="121.14231"
       inkscape:export-ydpi="121.14231" />
    <path
       style="fill:#635c5b;stroke-width:0.48948142"
       d="M 102.6004,335.96565 C 65.382752,330.98033 31.640295,308.87839 20.906253,278.00616 9.4036375,244.92342 18.06249,198.31622 44.452581,191.4217 c 1.599743,-0.41792 5.971385,-1.42258 9.714765,-2.23254 14.629091,-3.16531 13.438544,-2.71762 17.147824,-6.44816 5.786409,-5.81955 9.845728,-6.63351 21.101254,-4.23111 3.542316,0.75607 4.005643,0.74668 9.107466,-0.18461 15.77933,-2.88034 30.98497,-2.47937 42.99924,1.13387 2.1769,0.6547 6.36448,1.46459 9.30571,1.79975 7.33828,0.83622 9.01169,1.68611 9.64552,4.89875 0.22516,1.1413 -11.67556,-3.24037 -8.15532,-1.31924 34.61378,18.89009 44.38503,31.24732 44.38503,56.13155 0,50.2109 -13.53396,84.86086 -64.18346,94.46651 -11.53299,2.18723 -26.69885,1.36252 -32.92021,0.52918 z m 20.1146,-1.23803 c 55.18983,-6.73244 79.91704,-35.23774 78.20685,-86.81798 -0.47857,-14.43393 1.40021,-27.10868 -7.94673,-34.75974 -6.83531,-5.59509 -29.32755,-19.93856 -29.81597,-19.01385 -0.0513,0.0972 -0.82726,1.67183 -1.72422,3.49909 -0.90514,1.84396 -3.03082,4.85515 -4.77704,6.76714 -3.14619,3.44487 -3.14619,3.44487 -1.90056,6.6012 4.43544,11.23916 2.17209,25.80815 -4.2956,27.65059 -13.49659,3.84472 -33.76675,0.59748 -47.39571,-7.59271 -2.63363,-1.58266 -2.63363,-1.58266 -8.348287,-1.05401 -46.83848,4.33294 -66.607281,-13.86485 -34.270255,-31.54684 4.025236,-2.20102 3.900115,-2.08545 4.357295,-4.02444 0.415929,-1.76402 0.635404,-1.77759 -10.594366,0.65458 -19.246028,4.16834 -28.251897,12.67536 -34.971022,33.03394 -12.4967805,37.86461 4.198034,72.34116 45.866417,94.71904 21.54046,11.56822 35.905558,14.53154 57.609198,11.88399 z m 20.85174,-100.77473 c 9.08937,-1.13246 11.03385,-15.7498 3.28524,-24.69621 -1.90704,-2.20184 -1.90119,-2.36279 0.13715,-3.7698 13.70754,-9.46199 14.5352,-18.23514 1.84225,-19.52769 -19.304,-1.96578 -28.45242,-0.72288 -35.86785,4.87299 -0.41355,0.31206 -2.00688,-0.18776 -4.91035,-1.54038 -23.201519,-10.80874 -36.064594,-8.05464 -37.868421,8.10797 -0.332018,2.97499 -0.332018,2.97499 -3.390174,4.29258 -30.122602,12.97814 -14.738188,25.68886 27.193541,22.46751 7.822284,-0.60094 7.822284,-0.60094 11.711504,1.66446 8.75061,5.09707 26.01486,9.87856 32.08613,8.88655 0.53478,-0.0873 3.13622,-0.42847 5.78098,-0.75798 z"
       id="path48"
       inkscape:connector-curvature="0"
       sodipodi:nodetypes="sssssssssssssssssccssscsscsssssssscscssscs"
       inkscape:export-xdpi="121.14231"
       inkscape:export-ydpi="121.14231" />
    <path
       style="fill:#a64b0a;stroke-width:0.48948142"
       d="M 103.85912,336.35837 C 68.073995,332.45728 33.539328,309.9144 22.362206,279.74878 c -11.09681,-29.94885 -7.698491,-72.89081 15.53282,-85.16359 3.789584,-2.002 6.360693,-2.73904 19.918475,-5.70986 10.684159,-2.34115 10.822241,-2.39461 12.932812,-5.00566 4.890897,-6.05069 10.38964,-7.28642 21.670111,-4.86986 3.545586,0.75955 4.000938,0.75045 9.107466,-0.18168 15.46331,-2.82267 31.57792,-2.44927 42.33879,0.98102 1.73801,0.55403 6.18808,1.41141 9.88907,1.90528 7.35121,0.98098 8.27369,1.4343 9.28418,4.56239 0.40617,1.25732 1.24026,2.00592 3.91905,3.51742 36.52639,20.60961 30.88182,35.08616 30.88182,60.14629 0,53.77222 -3.68299,75.43108 -61.22179,82.36818 -6.79907,0.81974 -29.59893,4.40381 -32.75589,4.05966 z m 16.12141,-2.02675 c 55.18981,-6.73244 79.36459,-35.23774 77.6544,-86.818 -0.47856,-14.4339 4.68713,-26.71266 -4.65981,-34.36372 -6.83531,-5.59509 -29.32755,-19.93856 -29.81597,-19.01385 -0.0513,0.0972 -0.82726,1.67183 -1.72422,3.49909 -0.90514,1.84396 -3.03082,4.85515 -4.77704,6.76714 -3.14619,3.44487 -3.14619,3.44487 -1.90056,6.6012 4.43544,11.23916 2.17209,25.80815 -4.2956,27.65059 -13.49659,3.84472 -33.76675,0.59748 -47.39571,-7.59271 -2.63363,-1.58266 -2.63363,-1.58266 -8.348287,-1.05401 -46.83848,4.33294 -66.607281,-13.86485 -34.270255,-31.54684 4.025236,-2.20102 3.900115,-2.08545 4.357295,-4.02444 0.415929,-1.76402 0.635404,-1.77759 -10.594366,0.65458 -19.246028,4.16834 -28.251897,12.67536 -34.971022,33.03394 -12.4967805,37.86461 4.198034,72.34116 45.866417,94.71904 21.54046,11.56822 33.171082,14.13555 54.874728,11.48799 z m 23.58621,-100.37873 c 9.08937,-1.13246 11.03385,-15.7498 3.28524,-24.69621 -1.90704,-2.20184 -1.90119,-2.36279 0.13715,-3.7698 13.70754,-9.46199 14.5352,-18.23514 1.84225,-19.52769 -19.304,-1.96578 -28.45242,-0.72288 -35.86785,4.87299 -0.41355,0.31206 -2.00688,-0.18776 -4.91035,-1.54038 -23.201519,-10.80874 -36.064594,-8.05464 -37.868421,8.10797 -0.332018,2.97499 -0.332018,2.97499 -3.390174,4.29258 -30.122602,12.97814 -14.738188,25.68886 27.193541,22.46751 7.822284,-0.60094 7.822284,-0.60094 11.711504,1.66446 8.75061,5.09707 26.01486,9.87856 32.08613,8.88655 0.53478,-0.0873 3.13622,-0.42847 5.78098,-0.75798 z"
       id="path46"
       inkscape:connector-curvature="0"
       sodipodi:nodetypes="sssssssssssssssssccssscsscsssssssscscssscs"
       inkscape:export-xdpi="121.14231"
       inkscape:export-ydpi="121.14231" />
    <path
       style="fill:#582f14;stroke-width:0.48948142"
       d="m 102.84901,336.21012 c -35.785131,-3.90109 -87.335329,-30.93351 -85.375553,-63.09565 1.60351,-26.31537 -2.523639,-66.17559 20.421569,-78.52928 3.77404,-2.03195 6.360693,-2.73904 19.918475,-5.70986 10.684159,-2.34115 10.822241,-2.39461 12.932812,-5.00566 4.890897,-6.05069 10.38964,-7.28642 21.670111,-4.86986 3.545586,0.75955 4.000938,0.75045 9.107466,-0.18168 15.46331,-2.82267 31.57792,-2.44927 42.33879,0.98102 1.73801,0.55403 6.18808,1.41141 9.88907,1.90528 7.35121,0.98098 8.27369,1.4343 9.28418,4.56239 0.40617,1.25732 1.24026,2.00592 3.91905,3.51742 36.52639,20.60961 33.92028,35.64619 33.92028,60.70632 0,53.77221 -19.11611,78.2963 -76.6549,85.23341 -6.79909,0.81972 -18.21438,0.83029 -21.37135,0.48615 z m 20.8383,-0.93924 c 49.92181,-6.69431 71.01698,-33.74616 75.0604,-77.114 2.32208,-37.84894 0.17022,-42.5003 -18.967,-55.10619 -15.73155,-10.24462 -16.44135,-10.49043 -18.47198,-6.39689 -1.59865,3.22276 -5.26708,8.20597 -7.44137,10.10841 -1.24273,1.08737 -1.25432,1.15164 -0.48101,2.66761 3.51199,6.88477 3.93872,18.0682 0.96473,25.28372 -3.27068,7.93539 -32.20483,6.02425 -49.35391,-3.25989 -4.59166,-2.48582 -4.59166,-2.48582 -13.102197,-1.87563 -45.501837,3.26246 -62.112099,-13.88754 -30.200139,-31.18145 3.166338,-1.71592 4.898792,-4.52098 3.590171,-5.81293 -0.451111,-0.44533 -18.441022,3.3581 -21.988116,4.64876 -21.532269,7.83479 -35.0200885,47.3119 -25.77318,75.43475 7.771461,23.63552 32.410189,46.28088 62.935164,57.84347 15.670334,5.9358 25.988757,7.07205 43.228437,4.76026 z m 19.87943,-101.31799 c 9.08937,-1.13246 11.03385,-15.7498 3.28524,-24.69621 -1.90704,-2.20184 -1.90119,-2.36279 0.13715,-3.7698 13.70754,-9.46199 14.5352,-18.23514 1.84225,-19.52769 -19.304,-1.96578 -28.45242,-0.72288 -35.86785,4.87299 -0.41355,0.31206 -2.00688,-0.18776 -4.91035,-1.54038 -23.201519,-10.80874 -36.064594,-8.05464 -37.868421,8.10797 -0.332018,2.97499 -0.332018,2.97499 -3.390174,4.29258 -30.122602,12.97814 -14.738188,25.68886 27.193541,22.46751 7.822284,-0.60094 7.822284,-0.60094 11.711504,1.66446 8.75061,5.09707 26.01486,9.87856 32.08613,8.88655 0.53478,-0.0873 3.13622,-0.42847 5.78098,-0.75798 z"
       id="path44"
       inkscape:connector-curvature="0"
       sodipodi:nodetypes="ssssssssssssssscccsssssscsssssssscscssscs"
       inkscape:export-xdpi="121.14231"
       inkscape:export-ydpi="121.14231" />
    <path
       style="fill:#251915;stroke-width:0.48948142"
       d="M 102.84901,336.21012 C 30.753817,330.91986 3.1461895,291.56004 16.736844,227.18873 c 4.941581,-23.40553 15.29199,-34.00323 33.179042,-37.61245 15.94333,-3.21705 16.343997,-4.07102 19.655881,-7.54824 5.75158,-6.03865 8.112745,-6.80325 19.916999,-4.52801 4.069235,0.78433 14.599904,-0.20482 20.672574,-1.28625 13.24377,-2.35845 24.57358,-0.35357 34.80144,2.5578 2.78088,0.79159 8.13778,1.97403 11.42677,2.38564 6.81691,0.85314 8.03562,1.63895 8.77739,4.43147 0.46081,1.73482 2.04708,2.74887 4.57248,4.04119 27.22012,13.15651 34.0701,19.77497 33.2707,46.36765 -0.0827,12.97289 -2.57588,37.32621 -3.84893,47.61383 -2.88944,23.34999 -17.44425,43.78414 -56.89084,52.05017 -9.69801,1.78487 -31.51142,1.02174 -39.42134,0.54859 z m 14.62908,-5.27929 c 47.21379,0.19899 77.82638,-22.92763 76.75415,-71.63819 -0.54248,-24.64607 6.48912,-40.42617 -14.80335,-54.60072 -10.47192,-6.97123 -8.58957,-6.25487 -13.10445,-8.62403 -4.8417,-2.54069 -2.92899,-1.94342 -4.21193,1.09071 -1.2705,3.00464 -3.3569,5.40083 -6.51264,8.77285 -2.65994,2.84228 -1.58569,2.44627 -0.51679,4.61597 3.63843,7.38529 3.48928,22.30144 -0.26098,26.10321 -5.65281,5.73045 -31.82329,5.24104 -47.24242,-2.78802 -4.8933,-2.54806 -8.604378,-3.83509 -18.177341,-3.22295 -21.959845,1.40418 -40.278585,-4.32909 -45.673874,-10.86103 -4.102027,-4.96619 3.450254,-14.6167 15.276961,-20.65435 3.367561,-1.71918 4.142883,-0.98838 4.142883,-4.53497 0,-1.45991 4.492042,-1.86062 -8.881158,1.01987 -23.915003,5.15114 -36.887728,27.77297 -35.530042,59.29405 2.08056,48.30425 41.106844,75.78467 98.740981,76.0276 z m 26.47929,-98.75996 c 7.14277,-0.96561 5.14076,-3.16308 5.13243,-7.05097 -0.0198,-9.2723 -1.34292,-11.48759 -5.01558,-16.40394 -1.90257,-2.54684 1.12489,-3.93287 3.04916,-5.28471 5.20249,-3.65485 8.52725,-6.33885 9.17655,-11.24537 0.40826,-3.08503 1.44774,-3.58797 -7.53226,-4.48682 -20.19813,-2.02174 -26.16823,-1.32227 -32.92679,3.28839 -2.41552,1.64785 -6.61489,0.85584 -10.24222,-0.8199 -8.121597,-3.75198 -11.962105,-5.61512 -20.277149,-6.4081 -7.044874,-0.67186 -13.163847,5.60612 -13.197754,14.41767 -0.0056,1.41605 -1.878616,3.14301 -7.168392,5.85169 -8.216896,4.20751 -13.171094,8.43269 -11.9121,11.75862 2.112864,5.58168 17.652571,8.83557 39.83565,6.81957 5.95682,-0.54134 10.937465,0.0527 14.390255,2.07069 4.04586,2.36465 6.99428,3.94089 11.41333,5.3806 5.09144,1.65878 4.36919,1.73321 16.01568,3.27159 3.99273,-0.51098 4.48072,-0.47996 9.25919,-1.15901 z"
       id="path42"
       inkscape:connector-curvature="0"
       sodipodi:nodetypes="csscsssscccsccsssscssssssssssscssccsssscssscscc"
       inkscape:export-xdpi="121.14231"
       inkscape:export-ydpi="121.14231" />
    <flowRoot
       xml:space="preserve"
       id="flowRoot129"
       style="font-style:normal;font-variant:normal;font-weight:normal;font-stretch:normal;font-size:40px;line-height:1.25;font-family:Sawasdee;-inkscape-font-specification:Sawasdee;letter-spacing:0px;word-spacing:0px;fill:#000000;fill-opacity:1;stroke:none"
       transform="translate(10.60606,6.0606039)"
       inkscape:export-xdpi="121.14231"
       inkscape:export-ydpi="121.14231"><flowRegion
         id="flowRegion131"
         style="font-style:normal;font-variant:normal;font-weight:normal;font-stretch:normal;font-family:Sawasdee;-inkscape-font-specification:Sawasdee"><rect
           id="rect133"
           width="1850"
           height="265.15152"
           x="565.15149"
           y="113.69698"
           style="font-style:normal;font-variant:normal;font-weight:normal;font-stretch:normal;font-family:Sawasdee;-inkscape-font-specification:Sawasdee" /></flowRegion><flowPara
         id="flowPara135"
         style="font-style:normal;font-variant:normal;font-weight:bold;font-stretch:normal;font-size:340px;font-family:'Noto Sans';-inkscape-font-specification:'Noto Sans Bold'">JABS</flowPara></flowRoot>    <flowRoot
       xml:space="preserve"
       id="flowRoot137"
       style="font-style:normal;font-weight:normal;font-size:40px;line-height:1.25;font-family:sans-serif;letter-spacing:0px;word-spacing:0px;fill:#000000;fill-opacity:1;stroke:none"
       inkscape:export-xdpi="121.14231"
       inkscape:export-ydpi="121.14231"><flowRegion
         id="flowRegion139"><rect
           id="rect141"
           width="1079.9449"
           height="471.40451"
           x="578.54193"
           y="1.6433275" /></flowRegion><flowPara
         id="flowPara143" /></flowRoot>    <flowRoot
       xml:space="preserve"
       id="flowRoot145"
       style="font-style:normal;font-weight:normal;font-size:40px;line-height:1.25;font-family:sans-serif;letter-spacing:0px;word-spacing:0px;fill:#000000;fill-opacity:1;stroke:none"
       transform="translate(21.319799,29.63083)"
       inkscape:export-xdpi="121.14231"
       inkscape:export-ydpi="121.14231"><flowRegion
         id="flowRegion147"><rect
           id="rect149"
           width="1079.9449"
           height="454.26254"
           x="582.82739"
           y="-2.6421683" /></flowRegion><flowPara
         id="flowPara151"
         style="font-size:340px" /></flowRoot>    <flowRoot
       xml:space="preserve"
       id="flowRoot31"
       style="font-style:normal;font-weight:normal;font-size:40px;line-height:1.25;font-family:sans-serif;letter-spacing:0px;word-spacing:0px;fill:#000000;fill-opacity:1;stroke:none"
       transform="translate(10.60606,6.0606039)"
       inkscape:export-xdpi="121.14231"
       inkscape:export-ydpi="121.14231"><flowRegion
         id="flowRegion33"><rect
           id="rect35"
           width="767.1037"
           height="419.97858"
           x="580.68463"
           y="20.928062" /></flowRegion><flowPara
         id="flowPara37"
         style="font-style:normal;font-variant:normal;font-weight:bold;font-stretch:normal;font-size:340px;font-family:Aquino;-inkscape-font-specification:'Aquino Bold'">JABS</flowPara></flowRoot>    <text
       xml:space="preserve"
       style="font-style:normal;font-weight:normal;font-size:340px;line-height:1.25;font-family:sans-serif;letter-spacing:0px;word-spacing:0px;fill:#000000;fill-opacity:1;stroke:none;"
       x="233.21347"
       y="294.00763"
       id="text49"
       inkscape:export-xdpi="121.14231"
       inkscape:export-ydpi="121.14231"><tspan
         sodipodi:role="line"
         id="tspan47"
         x="233.21347"
         y="294.00763"
         style="font-style:normal;font-variant:normal;font-weight:normal;font-stretch:normal;font-size:133.33332825px;font-family:Aquino;-inkscape-font-specification:Aquino;fill:#000000;fill-opacity:1;">JABS</tspan></text>
    <text
       xml:space="preserve"
       style="font-style:normal;font-weight:normal;font-size:40px;line-height:1.25;font-family:sans-serif;letter-spacing:0px;word-spacing:0px;fill:#000000;fill-opacity:1;stroke:none"
       x="784.87329"
       y="298.59772"
       id="text858"
       inkscape:export-xdpi="121.14231"
       inkscape:export-ydpi="121.14231"><tspan
         sodipodi:role="line"
         id="tspan856"
         x="784.87329"
         y="333.98834" /></text>
    <path
       style="fill:#000000;fill-opacity:1;stroke:#e96000;stroke-width:3.7491653;stroke-miterlimit:4;stroke-dasharray:none;stroke-opacity:1"
       d="m 209.77885,154.28885 c -1.2495,-0.45204 -2.98969,-1.65645 -3.86708,-2.67648 -1.47067,-1.70976 -1.59526,-2.43542 -1.59526,-9.29157 0,-6.37516 0.20746,-7.80609 1.4531,-10.02241 1.60634,-2.85809 3.91448,-3.98678 8.15287,-3.98678 1.47394,0 3.86782,-0.35591 5.31973,-0.79092 3.27177,-0.98024 8.25098,-5.27828 9.93193,-8.57321 2.34657,-4.59965 2.71636,-11.6172 2.71636,-51.549064 0,-37.725455 0.0312,-38.653399 1.34507,-39.967242 1.24457,-1.244572 2.24178,-1.345073 13.34649,-1.345073 11.17477,0 12.08584,0.09329 13.2271,1.354372 1.16081,1.282681 1.21758,3.480938 1.07232,41.529113 -0.18844,49.357104 -0.62811,54.837944 -5.16916,64.436944 -3.50625,7.41159 -11.92545,14.52867 -21.46795,18.14768 -8.63546,3.27502 -19.58788,4.49923 -24.46552,2.73464 z"
       id="path951"
       inkscape:connector-curvature="0"
       transform="translate(13.309666,175.17534)"
       inkscape:export-xdpi="121.14231"
       inkscape:export-ydpi="121.14231" />
    <path
       style="fill:#000000;fill-opacity:1;stroke:#c4d500;stroke-width:3.7491653;stroke-miterlimit:4;stroke-dasharray:none;stroke-opacity:1"
       d="m 276.19982,116.80043 c -1.16406,-1.16406 -1.36342,-1.99049 -1.09514,-4.53962 0.19615,-1.86377 6.57828,-18.923782 15.87732,-42.441574 12.23211,-30.935665 15.98332,-39.759418 17.58367,-41.360979 l 2.03435,-2.035888 13.40676,-0.207034 13.40676,-0.207034 2.37139,2.224643 c 2.07425,1.945893 4.19458,6.817334 16.92188,38.877868 8.00276,20.159274 15.12161,38.289468 15.81965,40.289328 1.71655,4.91778 1.63561,7.55458 -0.28737,9.36112 -1.47663,1.38722 -2.16532,1.46231 -13.41322,1.46231 -14.53224,0 -14.11764,0.2384 -17.25161,-9.91991 l -2.12672,-6.8935 h -15.08811 -15.08811 l -2.09559,6.8935 c -3.08992,10.16437 -2.65904,9.91991 -17.48462,9.91991 -11.3921,0 -12.14787,-0.0797 -13.49129,-1.42314 z m 58.58872,-37.767056 c 0,-0.215312 -9.93967,-29.272506 -10.51996,-30.753577 -0.30175,-0.770149 -6.20155,15.614044 -10.71622,29.759729 -0.34712,1.087646 0.44421,1.176938 10.43028,1.176938 5.94324,0 10.8059,-0.08239 10.8059,-0.18309 z"
       id="path953"
       inkscape:connector-curvature="0"
       transform="translate(13.309666,175.17534)"
       inkscape:export-xdpi="121.14231"
       inkscape:export-ydpi="121.14231" />
    <path
       style="fill:#000000;fill-opacity:1;stroke:#e96000;stroke-width:3.7491653;stroke-miterlimit:4;stroke-dasharray:none;stroke-opacity:1"
       d="m 388.59144,119.76405 c -0.55484,-0.20401 -1.53843,-0.8323 -2.18574,-1.39621 -1.09887,-0.95727 -1.17694,-3.99885 -1.17694,-45.852431 0,-37.672044 0.1525,-45.035527 0.95541,-46.132632 0.91164,-1.245661 1.95171,-1.30548 22.6981,-1.30548 18.6181,0 22.48766,0.174827 26.92669,1.21655 15.54359,3.647672 21.89241,11.807504 21.26872,27.335658 -0.23332,5.809018 -0.52419,7.121598 -2.37222,10.704847 l -2.10629,4.084011 2.26621,1.400593 c 3.72861,2.30441 8.03116,7.612467 9.26361,11.428531 1.32987,4.117694 1.50509,13.37077 0.36106,19.067293 -2.16245,10.76763 -10.89189,17.36359 -25.45839,19.23637 -5.26314,0.67667 -48.68054,0.85993 -50.44022,0.2129 z m 43.71521,-20.753701 c 7.28896,-4.25698 7.10129,-13.723838 -0.3455,-17.429008 -2.2711,-1.129994 -4.07016,-1.335755 -11.76051,-1.345072 l -9.07924,-0.011 -0.18799,9.383121 c -0.1034,5.160717 -0.0241,9.810242 0.17622,10.332278 0.29586,0.770992 2.09902,0.901512 9.60615,0.695342 7.78994,-0.21393 9.61097,-0.46934 11.59087,-1.625661 z M 426.4432,61.48093 c 3.87338,-1.650423 5.52683,-4.09377 5.52683,-8.167132 0,-6.56357 -4.2431,-9.069218 -15.35793,-9.069218 -4.5618,0 -5.7636,0.209888 -6.09128,1.063809 -0.53106,1.383911 -0.53106,14.646949 0,16.03086 0.3343,0.871179 1.6169,1.063809 7.08323,1.063809 4.15388,0 7.4924,-0.348285 8.83915,-0.922128 z"
       id="path955"
       inkscape:connector-curvature="0"
       transform="translate(13.309666,175.17534)"
       inkscape:export-xdpi="121.14231"
       inkscape:export-ydpi="121.14231" />
    <path
       style="fill:#000000;fill-opacity:0;stroke:#c4d500;stroke-width:3.7491653;stroke-miterlimit:4;stroke-dasharray:none;stroke-opacity:1"
       d="m 509.54124,121.54064 c -6.46485,-0.69337 -14.06151,-3.20914 -21.32989,-7.06377 -10.75766,-5.70511 -14.85313,-9.73144 -13.87255,-13.63838 0.52332,-2.085077 8.50373,-13.000476 10.85981,-14.85377 2.24161,-1.763252 4.15002,-1.105459 12.31643,4.245245 3.67408,2.407283 8.06891,4.848381 9.7663,5.424664 3.43566,1.166433 11.44918,1.39677 14.06001,0.404133 2.24523,-0.853636 3.98308,-4.275588 3.43611,-6.765939 -0.38142,-1.736587 -4.97106,-6.698016 -6.22033,-6.724215 -1.90696,-0.03999 -13.57491,-2.891073 -17.63079,-4.308114 -8.91322,-3.114093 -13.51798,-6.853474 -16.6286,-13.503559 -1.72496,-3.687734 -1.8875,-4.701227 -1.8875,-11.769384 0,-7.310693 0.11818,-7.983658 2.15836,-12.290778 6.76361,-14.278961 24.48493,-20.683257 44.25491,-15.993247 11.62846,2.758607 23.86677,10.447342 23.86677,14.99433 0,2.915556 -9.91963,13.962231 -12.53772,13.962231 -0.81563,0 -4.01714,-1.514544 -7.11445,-3.365654 -9.52698,-5.693809 -16.37752,-7.311946 -21.64251,-5.112091 -4.63574,1.936934 -5.93103,7.272456 -2.69823,11.114426 1.83344,2.17891 3.2484,2.686715 15.07385,5.409746 20.20533,4.65265 32.35692,17.990915 29.6636,32.56041 -1.15537,6.249996 -3.84704,11.045326 -9.10583,16.222476 -9.02685,8.8867 -20.62279,12.57045 -34.78775,11.05124 z"
       id="path957"
       inkscape:connector-curvature="0"
       transform="translate(13.309666,175.17534)"
       inkscape:export-xdpi="121.14231"
       inkscape:export-ydpi="121.14231" />
  </g>
</svg>
